<svg xmlns="http://www.w3.org/2000/svg" width="410" height="404" viewBox="0 0 410 404" fill="none"><path d="M399.641 59.5246C409.997 39.7426 393.638 16.477 371.555 19.2728L110.148 52.4199C86.6144 55.4046 79.4699 85.5046 98.4014 98.5331L170.742 148.313C178.67 153.767 181.857 163.9 178.568 172.877L146.315 260.917C140.425 276.994 156.314 292.656 172.27 286.303L231.247 262.764C240.447 259.091 250.836 262.209 256.597 270.09L305.79 337.35C318.806 355.147 346.701 350.66 353.392 329.073L399.641 59.5246Z" fill="url(#paint0_linear)"/><path d="M292.965 88.5601C300.086 77.1994 290.299 63.0749 277.216 65.4085L146.555 88.723C135.377 90.7166 129.096 103.172 135.922 112.283L178.844 169.234C184.439 176.654 185.293 186.725 181.067 194.99L145.115 265.307C139.251 276.785 149.91 289.456 162.128 285.819L224.174 267.349C231.673 265.116 239.854 267.722 244.491 273.948L286.824 330.836C295.087 341.929 312.493 340.032 318.076 327.686L292.965 88.5601Z" fill="url(#paint1_linear)"/><defs><linearGradient id="paint0_linear" x1="170.478" y1="20.0068" x2="292.512" y2="347.33" gradientUnits="userSpaceOnUse"><stop stop-color="#41D1FF"/><stop offset="1" stop-color="#BD34FE"/></linearGradient><linearGradient id="paint1_linear" x1="152.191" y1="80.7783" x2="279.452" y2="299.61" gradientUnits="userSpaceOnUse"><stop stop-color="#FFEA83"/><stop offset="0.0833333" stop-color="#FFDD35"/><stop offset="1" stop-color="#FFA800"/></linearGradient></defs></svg>
